<svg version="1.1" id="Layer_1" xmlns="http://www.w3.org/2000/svg" xmlns:xlink="http://www.w3.org/1999/xlink" x="0px" y="0px"
	 width="100%" viewBox="0 0 256 256" enable-background="new 0 0 256 256" xml:space="preserve">
<path fill="#000001" opacity="1.000000" stroke="none" 
	d="
M173.000000,257.000000 
	C115.333336,257.000000 58.166672,257.000000 1.000008,257.000000 
	C1.000005,171.666672 1.000005,86.333351 1.000003,1.000019 
	C86.333321,1.000013 171.666641,1.000013 257.000000,1.000006 
	C257.000000,86.333313 257.000000,171.666626 257.000000,256.999969 
	C229.166672,257.000000 201.333328,257.000000 173.000000,257.000000 
M84.197586,79.127113 
	C53.574883,87.271889 30.860659,114.472694 32.211124,151.377029 
	C32.905411,170.349808 32.333103,189.368927 32.333153,208.367111 
	C32.333160,210.157608 32.333157,211.948090 32.333157,213.852020 
	C33.859886,214.064758 34.821022,214.315445 35.782257,214.315811 
	C76.278328,214.331635 116.779274,214.709961 157.268951,214.198822 
	C189.313812,213.794266 216.792480,190.177231 221.941513,158.583191 
	C223.799393,147.183395 223.173798,135.344574 223.282211,123.702393 
	C223.426407,108.216599 223.180252,92.727173 223.290466,76.414093 
	C223.290466,64.820969 223.290466,53.227848 223.290466,41.726723 
	C222.135605,41.527557 221.646759,41.369709 221.157852,41.369473 
	C195.188461,41.356941 169.192169,40.618874 143.257187,41.563427 
	C116.950920,42.521507 97.190063,55.234409 84.197586,79.127113 
z"/>
<path fill="#290CFE" opacity="1.000000" stroke="none" 
	d="
M223.101791,77.239304 
	C223.180252,92.727173 223.426407,108.216599 223.282211,123.702393 
	C223.173798,135.344574 223.799393,147.183395 221.941513,158.583191 
	C216.792480,190.177231 189.313812,213.794266 157.268951,214.198822 
	C116.779274,214.709961 76.278328,214.331635 35.782257,214.315811 
	C34.821022,214.315445 33.859886,214.064758 32.333157,213.852020 
	C32.333157,211.948090 32.333160,210.157608 32.333153,208.367111 
	C32.333103,189.368927 32.905411,170.349808 32.211124,151.377029 
	C30.860659,114.472694 53.574883,87.271889 84.961304,79.001617 
	C91.019951,78.320030 96.313438,77.298187 101.610031,77.281914 
	C142.106949,77.157417 182.604462,77.228821 223.101791,77.239304 
z"/>
<path fill="#00C6C6" opacity="1.000000" stroke="none" 
	d="
M223.196136,76.826691 
	C182.604462,77.228821 142.106949,77.157417 101.610031,77.281914 
	C96.313438,77.298187 91.019951,78.320030 85.304779,78.869125 
	C97.190063,55.234409 116.950920,42.521507 143.257187,41.563427 
	C169.192169,40.618874 195.188461,41.356941 221.157852,41.369473 
	C221.646759,41.369709 222.135605,41.527557 223.290466,41.726723 
	C223.290466,53.227848 223.290466,64.820969 223.196136,76.826691 
z"/>
</svg>