<svg width="35" height="35" viewBox="0 0 35 35" fill="none" xmlns="http://www.w3.org/2000/svg">
<path opacity="0.4" d="M32.0833 11.3896V23.6104C32.0833 28.9188 28.9187 32.0834 23.6104 32.0834H11.3895C11.0979 32.0834 10.8062 32.0688 10.5291 32.0542C8.73538 31.9375 7.21871 31.4271 6.02288 30.5521C5.41038 30.1292 4.87079 29.5896 4.44788 28.9771C3.44163 27.5917 2.91663 25.7834 2.91663 23.6104V11.3896C2.91663 6.37294 5.74579 3.26669 10.5291 2.96044C10.8062 2.93127 11.0979 2.91669 11.3895 2.91669H23.6104C25.7833 2.91669 27.5916 3.44169 28.977 4.44794C29.5895 4.87085 30.1291 5.41044 30.552 6.02294C31.5583 7.40835 32.0833 9.21669 32.0833 11.3896Z" fill="#2970FF"/>
<path d="M11.8999 9.69781H23.0853C24.0187 9.69781 24.777 10.4561 24.777 11.3895V13.2561C24.777 13.9416 24.3541 14.7874 23.9312 15.2103L20.2853 18.4332C19.7749 18.8561 19.4395 19.702 19.4395 20.3874V24.0332C19.4395 24.5436 19.1041 25.2145 18.6812 25.477L17.4999 26.2207C16.3916 26.9061 14.8749 26.1332 14.8749 24.777V20.2853C14.8749 19.6874 14.5395 18.9291 14.1895 18.5061L10.9666 15.1082C10.5437 14.6999 10.2083 13.927 10.2083 13.4166V11.477C10.2083 10.4561 10.9666 9.69781 11.8999 9.69781Z" fill="#2970FF"/>
</svg>
