<svg width="375" height="340" viewBox="0 0 375 340" fill="none" xmlns="http://www.w3.org/2000/svg">
<path d="M373.938 71.0543C374.072 72.5388 374.322 74.0232 374.323 75.5077C374.36 119.489 374.556 163.472 374.346 207.452C374.053 268.796 328.915 324.045 268.858 336.448C259.143 338.454 249.066 339.576 239.151 339.611C161.185 339.884 83.2173 339.766 5.25024 339.892C1.31941 339.899 0.103104 338.818 0.11455 334.832C0.240362 291.017 -0.121458 247.2 0.271315 203.389C0.80353 144.023 40.7452 92.5332 98.3745 76.0651C99.4925 75.7456 100.591 75.356 102.192 74.8641C102.876 74.6554 102.964 74.5162 102.95 74.3115C102.95 74.3115 103.163 74.0517 103.785 74.0519C114.316 73.0472 124.222 71.1994 134.133 71.1706C214.067 70.9385 294.003 71.0487 373.938 71.0543Z" fill="#290CFE"/>
<path d="M374.023 70.5874C294.003 71.0487 214.067 70.9385 134.133 71.1706C124.222 71.1994 114.316 73.0472 103.938 73.9818C109.879 59.1121 119.99 47.0195 131.701 36.2582C157.943 12.1443 189.159 0.87027 224.657 0.891141C272.319 0.919163 319.981 0.930307 367.642 0.754171C372.534 0.736097 374.371 1.91586 374.299 7.13036C374.008 28.1239 374.136 49.1232 374.023 70.5874Z" fill="#03C6C8"/>
</svg>
